%TF.GenerationSoftware,KiCad,Pcbnew,10.0.5*%
%TF.CreationDate,2026-09-21T23:07:47-04:00*%
%TF.ProjectId,TSOP50,54534f50-3530-42e6-9b69-6361645f7063,rev?*%
%TF.SameCoordinates,Original*%
%TF.FileFunction,Copper,L2,Bot*%
%TF.FilePolarity,Positive*%
%FSLAX46Y46*%
G04 Gerber Fmt 4.6, Leading zero omitted, Abs format (unit mm)*
G04 Created by KiCad (PCBNEW 10.0.5) date 2026-09-21 23:07:47*
%MOMM*%
%LPD*%
G01*
G04 APERTURE LIST*
G04 Aperture macros list*
%AMRoundRect*
0 Rectangle with rounded corners*
0 $1 Rounding radius*
0 $2 $3 $4 $5 $6 $7 $8 $9 X,Y pos of 4 corners*
0 Add a 4 corners polygon primitive as box body*
4,1,4,$2,$3,$4,$5,$6,$7,$8,$9,$2,$3,0*
0 Add four circle primitives for the rounded corners*
1,1,$1+$1,$2,$3*
1,1,$1+$1,$4,$5*
1,1,$1+$1,$6,$7*
1,1,$1+$1,$8,$9*
0 Add four rect primitives between the rounded corners*
20,1,$1+$1,$2,$3,$4,$5,0*
20,1,$1+$1,$4,$5,$6,$7,0*
20,1,$1+$1,$6,$7,$8,$9,0*
20,1,$1+$1,$8,$9,$2,$3,0*%
G04 Aperture macros list end*
%TA.AperFunction,ComponentPad*%
%ADD10RoundRect,0.150000X0.150000X0.600000X-0.150000X0.600000X-0.150000X-0.600000X0.150000X-0.600000X0*%
%TD*%
%TA.AperFunction,ComponentPad*%
%ADD11RoundRect,0.150000X-0.150000X-0.600000X0.150000X-0.600000X0.150000X0.600000X-0.150000X0.600000X0*%
%TD*%
G04 APERTURE END LIST*
D10*
%TO.P,REF\u002A\u002A,50*%
%TO.N,N/C*%
X152100000Y-102400000D03*
%TO.P,REF\u002A\u002A,49*%
X151300000Y-102400000D03*
%TO.P,REF\u002A\u002A,48*%
X150500000Y-102400000D03*
%TO.P,REF\u002A\u002A,47*%
X149700000Y-102400000D03*
%TO.P,REF\u002A\u002A,46*%
X148900000Y-102400000D03*
%TO.P,REF\u002A\u002A,45*%
X148100000Y-102400000D03*
%TO.P,REF\u002A\u002A,44*%
X147300000Y-102400000D03*
%TO.P,REF\u002A\u002A,43*%
X146500000Y-102400000D03*
%TO.P,REF\u002A\u002A,42*%
X145700000Y-102400000D03*
%TO.P,REF\u002A\u002A,41*%
X144900000Y-102400000D03*
%TO.P,REF\u002A\u002A,40*%
X144100000Y-102400000D03*
%TO.P,REF\u002A\u002A,39*%
X143300000Y-102400000D03*
%TO.P,REF\u002A\u002A,38*%
X142500000Y-102400000D03*
%TO.P,REF\u002A\u002A,37*%
X141700000Y-102400000D03*
%TO.P,REF\u002A\u002A,36*%
X140900000Y-102400000D03*
%TO.P,REF\u002A\u002A,35*%
X140100000Y-102400000D03*
%TO.P,REF\u002A\u002A,34*%
X139300000Y-102400000D03*
%TO.P,REF\u002A\u002A,33*%
X138500000Y-102400000D03*
%TO.P,REF\u002A\u002A,32*%
X137700000Y-102400000D03*
%TO.P,REF\u002A\u002A,31*%
X136900000Y-102400000D03*
%TO.P,REF\u002A\u002A,30*%
X136100000Y-102400000D03*
%TO.P,REF\u002A\u002A,29*%
X135300000Y-102400000D03*
%TO.P,REF\u002A\u002A,28*%
X134500000Y-102400000D03*
%TO.P,REF\u002A\u002A,27*%
X133700000Y-102400000D03*
%TO.P,REF\u002A\u002A,26*%
X132900000Y-102400000D03*
D11*
%TO.P,REF\u002A\u002A,27*%
X151300000Y-89600000D03*
%TO.P,REF\u002A\u002A,26*%
X152100000Y-89600000D03*
%TO.P,REF\u002A\u002A,32*%
X147300000Y-89600000D03*
%TO.P,REF\u002A\u002A,39*%
X141700000Y-89600000D03*
%TO.P,REF\u002A\u002A,40*%
X140900000Y-89600000D03*
%TO.P,REF\u002A\u002A,42*%
X139300000Y-89600000D03*
%TO.P,REF\u002A\u002A,44*%
X137700000Y-89600000D03*
%TO.P,REF\u002A\u002A,45*%
X136900000Y-89600000D03*
%TO.P,REF\u002A\u002A,34*%
X145700000Y-89600000D03*
%TO.P,REF\u002A\u002A,30*%
X148900000Y-89600000D03*
%TO.P,REF\u002A\u002A,31*%
X148100000Y-89600000D03*
%TO.P,REF\u002A\u002A,29*%
X149700000Y-89600000D03*
%TO.P,REF\u002A\u002A,43*%
X138500000Y-89600000D03*
%TO.P,REF\u002A\u002A,41*%
X140100000Y-89600000D03*
%TO.P,REF\u002A\u002A,46*%
X136100000Y-89600000D03*
%TO.P,REF\u002A\u002A,35*%
X144900000Y-89600000D03*
%TO.P,REF\u002A\u002A,28*%
X150500000Y-89600000D03*
%TO.P,REF\u002A\u002A,33*%
X146500000Y-89600000D03*
%TO.P,REF\u002A\u002A,36*%
X144100000Y-89600000D03*
%TO.P,REF\u002A\u002A,37*%
X143300000Y-89600000D03*
%TO.P,REF\u002A\u002A,38*%
X142500000Y-89600000D03*
%TO.P,REF\u002A\u002A,48*%
X134500000Y-89600000D03*
%TO.P,REF\u002A\u002A,47*%
X135300000Y-89600000D03*
%TO.P,REF\u002A\u002A,49*%
X133700000Y-89600000D03*
%TO.P,REF\u002A\u002A,50*%
X132900000Y-89600000D03*
%TD*%
M02*
