%TF.GenerationSoftware,KiCad,Pcbnew,10.0.5*%
%TF.CreationDate,2026-09-21T23:07:47-04:00*%
%TF.ProjectId,TSOP50,54534f50-3530-42e6-9b69-6361645f7063,rev?*%
%TF.SameCoordinates,Original*%
%TF.FileFunction,Paste,Top*%
%TF.FilePolarity,Positive*%
%FSLAX46Y46*%
G04 Gerber Fmt 4.6, Leading zero omitted, Abs format (unit mm)*
G04 Created by KiCad (PCBNEW 10.0.5) date 2026-09-21 23:07:47*
%MOMM*%
%LPD*%
G01*
G04 APERTURE LIST*
%ADD10R,0.600000X4.000000*%
G04 APERTURE END LIST*
D10*
%TO.C,REF\u002A\u002A*%
X150500000Y-92750000D03*
X148900000Y-92750000D03*
X147300000Y-92750000D03*
X152100000Y-92750000D03*
X145700000Y-92750000D03*
X151300000Y-92750000D03*
X148100000Y-92750000D03*
X149700000Y-92750000D03*
X146500000Y-92750000D03*
X144900000Y-92750000D03*
X142500000Y-92750000D03*
X138500000Y-92750000D03*
X140900000Y-92750000D03*
X139300000Y-92750000D03*
X136100000Y-92750000D03*
X141700000Y-92750000D03*
X137700000Y-92750000D03*
X144100000Y-92750000D03*
X143300000Y-92750000D03*
X140100000Y-92750000D03*
X136900000Y-92750000D03*
X133700000Y-92750000D03*
X132900000Y-92750000D03*
X152100000Y-99250000D03*
X151300000Y-99250000D03*
X150500000Y-99250000D03*
X149700000Y-99250000D03*
X148900000Y-99250000D03*
X148100000Y-99250000D03*
X147300000Y-99250000D03*
X146500000Y-99250000D03*
X145700000Y-99250000D03*
X144900000Y-99250000D03*
X144100000Y-99250000D03*
X143300000Y-99250000D03*
X142500000Y-99250000D03*
X141700000Y-99250000D03*
X140900000Y-99250000D03*
X140100000Y-99250000D03*
X139300000Y-99250000D03*
X138500000Y-99250000D03*
X137700000Y-99250000D03*
X136900000Y-99250000D03*
X136100000Y-99250000D03*
X135300000Y-99250000D03*
X135300000Y-92750000D03*
X134500000Y-99250000D03*
X134500000Y-92750000D03*
X133700000Y-99250000D03*
X132900000Y-99250000D03*
%TD*%
M02*
