%TF.GenerationSoftware,KiCad,Pcbnew,10.0.5*%
%TF.CreationDate,2026-09-21T23:07:47-04:00*%
%TF.ProjectId,TSOP50,54534f50-3530-42e6-9b69-6361645f7063,rev?*%
%TF.SameCoordinates,Original*%
%TF.FileFunction,Legend,Top*%
%TF.FilePolarity,Positive*%
%FSLAX46Y46*%
G04 Gerber Fmt 4.6, Leading zero omitted, Abs format (unit mm)*
G04 Created by KiCad (PCBNEW 10.0.5) date 2026-09-21 23:07:47*
%MOMM*%
%LPD*%
G01*
G04 APERTURE LIST*
%ADD10C,0.200000*%
%ADD11C,0.160000*%
%ADD12C,0.120000*%
G04 APERTURE END LIST*
D10*
X148654136Y-95640304D02*
X148158898Y-95640304D01*
X148158898Y-95640304D02*
X148425564Y-95335542D01*
X148425564Y-95335542D02*
X148311279Y-95335542D01*
X148311279Y-95335542D02*
X148235088Y-95297447D01*
X148235088Y-95297447D02*
X148196993Y-95259352D01*
X148196993Y-95259352D02*
X148158898Y-95183161D01*
X148158898Y-95183161D02*
X148158898Y-94992685D01*
X148158898Y-94992685D02*
X148196993Y-94916495D01*
X148196993Y-94916495D02*
X148235088Y-94878400D01*
X148235088Y-94878400D02*
X148311279Y-94840304D01*
X148311279Y-94840304D02*
X148539850Y-94840304D01*
X148539850Y-94840304D02*
X148616041Y-94878400D01*
X148616041Y-94878400D02*
X148654136Y-94916495D01*
X147777945Y-94840304D02*
X147625564Y-94840304D01*
X147625564Y-94840304D02*
X147549374Y-94878400D01*
X147549374Y-94878400D02*
X147511278Y-94916495D01*
X147511278Y-94916495D02*
X147435088Y-95030780D01*
X147435088Y-95030780D02*
X147396993Y-95183161D01*
X147396993Y-95183161D02*
X147396993Y-95487923D01*
X147396993Y-95487923D02*
X147435088Y-95564114D01*
X147435088Y-95564114D02*
X147473183Y-95602209D01*
X147473183Y-95602209D02*
X147549374Y-95640304D01*
X147549374Y-95640304D02*
X147701755Y-95640304D01*
X147701755Y-95640304D02*
X147777945Y-95602209D01*
X147777945Y-95602209D02*
X147816040Y-95564114D01*
X147816040Y-95564114D02*
X147854136Y-95487923D01*
X147854136Y-95487923D02*
X147854136Y-95297447D01*
X147854136Y-95297447D02*
X147816040Y-95221257D01*
X147816040Y-95221257D02*
X147777945Y-95183161D01*
X147777945Y-95183161D02*
X147701755Y-95145066D01*
X147701755Y-95145066D02*
X147549374Y-95145066D01*
X147549374Y-95145066D02*
X147473183Y-95183161D01*
X147473183Y-95183161D02*
X147435088Y-95221257D01*
X147435088Y-95221257D02*
X147396993Y-95297447D01*
X147054136Y-95640304D02*
X146558898Y-95640304D01*
X146558898Y-95640304D02*
X146825564Y-95335542D01*
X146825564Y-95335542D02*
X146711279Y-95335542D01*
X146711279Y-95335542D02*
X146635088Y-95297447D01*
X146635088Y-95297447D02*
X146596993Y-95259352D01*
X146596993Y-95259352D02*
X146558898Y-95183161D01*
X146558898Y-95183161D02*
X146558898Y-94992685D01*
X146558898Y-94992685D02*
X146596993Y-94916495D01*
X146596993Y-94916495D02*
X146635088Y-94878400D01*
X146635088Y-94878400D02*
X146711279Y-94840304D01*
X146711279Y-94840304D02*
X146939850Y-94840304D01*
X146939850Y-94840304D02*
X147016041Y-94878400D01*
X147016041Y-94878400D02*
X147054136Y-94916495D01*
X146177945Y-94840304D02*
X146025564Y-94840304D01*
X146025564Y-94840304D02*
X145949374Y-94878400D01*
X145949374Y-94878400D02*
X145911278Y-94916495D01*
X145911278Y-94916495D02*
X145835088Y-95030780D01*
X145835088Y-95030780D02*
X145796993Y-95183161D01*
X145796993Y-95183161D02*
X145796993Y-95487923D01*
X145796993Y-95487923D02*
X145835088Y-95564114D01*
X145835088Y-95564114D02*
X145873183Y-95602209D01*
X145873183Y-95602209D02*
X145949374Y-95640304D01*
X145949374Y-95640304D02*
X146101755Y-95640304D01*
X146101755Y-95640304D02*
X146177945Y-95602209D01*
X146177945Y-95602209D02*
X146216040Y-95564114D01*
X146216040Y-95564114D02*
X146254136Y-95487923D01*
X146254136Y-95487923D02*
X146254136Y-95297447D01*
X146254136Y-95297447D02*
X146216040Y-95221257D01*
X146216040Y-95221257D02*
X146177945Y-95183161D01*
X146177945Y-95183161D02*
X146101755Y-95145066D01*
X146101755Y-95145066D02*
X145949374Y-95145066D01*
X145949374Y-95145066D02*
X145873183Y-95183161D01*
X145873183Y-95183161D02*
X145835088Y-95221257D01*
X145835088Y-95221257D02*
X145796993Y-95297447D01*
X145454136Y-95640304D02*
X144958898Y-95640304D01*
X144958898Y-95640304D02*
X145225564Y-95335542D01*
X145225564Y-95335542D02*
X145111279Y-95335542D01*
X145111279Y-95335542D02*
X145035088Y-95297447D01*
X145035088Y-95297447D02*
X144996993Y-95259352D01*
X144996993Y-95259352D02*
X144958898Y-95183161D01*
X144958898Y-95183161D02*
X144958898Y-94992685D01*
X144958898Y-94992685D02*
X144996993Y-94916495D01*
X144996993Y-94916495D02*
X145035088Y-94878400D01*
X145035088Y-94878400D02*
X145111279Y-94840304D01*
X145111279Y-94840304D02*
X145339850Y-94840304D01*
X145339850Y-94840304D02*
X145416041Y-94878400D01*
X145416041Y-94878400D02*
X145454136Y-94916495D01*
X144577945Y-94840304D02*
X144425564Y-94840304D01*
X144425564Y-94840304D02*
X144349374Y-94878400D01*
X144349374Y-94878400D02*
X144311278Y-94916495D01*
X144311278Y-94916495D02*
X144235088Y-95030780D01*
X144235088Y-95030780D02*
X144196993Y-95183161D01*
X144196993Y-95183161D02*
X144196993Y-95487923D01*
X144196993Y-95487923D02*
X144235088Y-95564114D01*
X144235088Y-95564114D02*
X144273183Y-95602209D01*
X144273183Y-95602209D02*
X144349374Y-95640304D01*
X144349374Y-95640304D02*
X144501755Y-95640304D01*
X144501755Y-95640304D02*
X144577945Y-95602209D01*
X144577945Y-95602209D02*
X144616040Y-95564114D01*
X144616040Y-95564114D02*
X144654136Y-95487923D01*
X144654136Y-95487923D02*
X144654136Y-95297447D01*
X144654136Y-95297447D02*
X144616040Y-95221257D01*
X144616040Y-95221257D02*
X144577945Y-95183161D01*
X144577945Y-95183161D02*
X144501755Y-95145066D01*
X144501755Y-95145066D02*
X144349374Y-95145066D01*
X144349374Y-95145066D02*
X144273183Y-95183161D01*
X144273183Y-95183161D02*
X144235088Y-95221257D01*
X144235088Y-95221257D02*
X144196993Y-95297447D01*
X143854136Y-95640304D02*
X143358898Y-95640304D01*
X143358898Y-95640304D02*
X143625564Y-95335542D01*
X143625564Y-95335542D02*
X143511279Y-95335542D01*
X143511279Y-95335542D02*
X143435088Y-95297447D01*
X143435088Y-95297447D02*
X143396993Y-95259352D01*
X143396993Y-95259352D02*
X143358898Y-95183161D01*
X143358898Y-95183161D02*
X143358898Y-94992685D01*
X143358898Y-94992685D02*
X143396993Y-94916495D01*
X143396993Y-94916495D02*
X143435088Y-94878400D01*
X143435088Y-94878400D02*
X143511279Y-94840304D01*
X143511279Y-94840304D02*
X143739850Y-94840304D01*
X143739850Y-94840304D02*
X143816041Y-94878400D01*
X143816041Y-94878400D02*
X143854136Y-94916495D01*
X142977945Y-94840304D02*
X142825564Y-94840304D01*
X142825564Y-94840304D02*
X142749374Y-94878400D01*
X142749374Y-94878400D02*
X142711278Y-94916495D01*
X142711278Y-94916495D02*
X142635088Y-95030780D01*
X142635088Y-95030780D02*
X142596993Y-95183161D01*
X142596993Y-95183161D02*
X142596993Y-95487923D01*
X142596993Y-95487923D02*
X142635088Y-95564114D01*
X142635088Y-95564114D02*
X142673183Y-95602209D01*
X142673183Y-95602209D02*
X142749374Y-95640304D01*
X142749374Y-95640304D02*
X142901755Y-95640304D01*
X142901755Y-95640304D02*
X142977945Y-95602209D01*
X142977945Y-95602209D02*
X143016040Y-95564114D01*
X143016040Y-95564114D02*
X143054136Y-95487923D01*
X143054136Y-95487923D02*
X143054136Y-95297447D01*
X143054136Y-95297447D02*
X143016040Y-95221257D01*
X143016040Y-95221257D02*
X142977945Y-95183161D01*
X142977945Y-95183161D02*
X142901755Y-95145066D01*
X142901755Y-95145066D02*
X142749374Y-95145066D01*
X142749374Y-95145066D02*
X142673183Y-95183161D01*
X142673183Y-95183161D02*
X142635088Y-95221257D01*
X142635088Y-95221257D02*
X142596993Y-95297447D01*
X151816041Y-95564114D02*
X151777945Y-95602209D01*
X151777945Y-95602209D02*
X151701755Y-95640304D01*
X151701755Y-95640304D02*
X151511279Y-95640304D01*
X151511279Y-95640304D02*
X151435088Y-95602209D01*
X151435088Y-95602209D02*
X151396993Y-95564114D01*
X151396993Y-95564114D02*
X151358898Y-95487923D01*
X151358898Y-95487923D02*
X151358898Y-95411733D01*
X151358898Y-95411733D02*
X151396993Y-95297447D01*
X151396993Y-95297447D02*
X151854136Y-94840304D01*
X151854136Y-94840304D02*
X151358898Y-94840304D01*
X151092231Y-95640304D02*
X150558897Y-95640304D01*
X150558897Y-95640304D02*
X150901755Y-94840304D01*
X150254136Y-95640304D02*
X149758898Y-95640304D01*
X149758898Y-95640304D02*
X150025564Y-95335542D01*
X150025564Y-95335542D02*
X149911279Y-95335542D01*
X149911279Y-95335542D02*
X149835088Y-95297447D01*
X149835088Y-95297447D02*
X149796993Y-95259352D01*
X149796993Y-95259352D02*
X149758898Y-95183161D01*
X149758898Y-95183161D02*
X149758898Y-94992685D01*
X149758898Y-94992685D02*
X149796993Y-94916495D01*
X149796993Y-94916495D02*
X149835088Y-94878400D01*
X149835088Y-94878400D02*
X149911279Y-94840304D01*
X149911279Y-94840304D02*
X150139850Y-94840304D01*
X150139850Y-94840304D02*
X150216041Y-94878400D01*
X150216041Y-94878400D02*
X150254136Y-94916495D01*
X149492231Y-95640304D02*
X148958897Y-95640304D01*
X148958897Y-95640304D02*
X149301755Y-94840304D01*
X138635088Y-95373638D02*
X138635088Y-94840304D01*
X138825564Y-95678400D02*
X139016041Y-95106971D01*
X139016041Y-95106971D02*
X138520802Y-95106971D01*
X138292231Y-95640304D02*
X137796993Y-95640304D01*
X137796993Y-95640304D02*
X138063659Y-95335542D01*
X138063659Y-95335542D02*
X137949374Y-95335542D01*
X137949374Y-95335542D02*
X137873183Y-95297447D01*
X137873183Y-95297447D02*
X137835088Y-95259352D01*
X137835088Y-95259352D02*
X137796993Y-95183161D01*
X137796993Y-95183161D02*
X137796993Y-94992685D01*
X137796993Y-94992685D02*
X137835088Y-94916495D01*
X137835088Y-94916495D02*
X137873183Y-94878400D01*
X137873183Y-94878400D02*
X137949374Y-94840304D01*
X137949374Y-94840304D02*
X138177945Y-94840304D01*
X138177945Y-94840304D02*
X138254136Y-94878400D01*
X138254136Y-94878400D02*
X138292231Y-94916495D01*
X137035088Y-95373638D02*
X137035088Y-94840304D01*
X137225564Y-95678400D02*
X137416041Y-95106971D01*
X137416041Y-95106971D02*
X136920802Y-95106971D01*
X136235088Y-95640304D02*
X136616040Y-95640304D01*
X136616040Y-95640304D02*
X136654136Y-95259352D01*
X136654136Y-95259352D02*
X136616040Y-95297447D01*
X136616040Y-95297447D02*
X136539850Y-95335542D01*
X136539850Y-95335542D02*
X136349374Y-95335542D01*
X136349374Y-95335542D02*
X136273183Y-95297447D01*
X136273183Y-95297447D02*
X136235088Y-95259352D01*
X136235088Y-95259352D02*
X136196993Y-95183161D01*
X136196993Y-95183161D02*
X136196993Y-94992685D01*
X136196993Y-94992685D02*
X136235088Y-94916495D01*
X136235088Y-94916495D02*
X136273183Y-94878400D01*
X136273183Y-94878400D02*
X136349374Y-94840304D01*
X136349374Y-94840304D02*
X136539850Y-94840304D01*
X136539850Y-94840304D02*
X136616040Y-94878400D01*
X136616040Y-94878400D02*
X136654136Y-94916495D01*
X135435088Y-95373638D02*
X135435088Y-94840304D01*
X135625564Y-95678400D02*
X135816041Y-95106971D01*
X135816041Y-95106971D02*
X135320802Y-95106971D01*
X135092231Y-95640304D02*
X134558897Y-95640304D01*
X134558897Y-95640304D02*
X134901755Y-94840304D01*
X142254136Y-95640304D02*
X141758898Y-95640304D01*
X141758898Y-95640304D02*
X142025564Y-95335542D01*
X142025564Y-95335542D02*
X141911279Y-95335542D01*
X141911279Y-95335542D02*
X141835088Y-95297447D01*
X141835088Y-95297447D02*
X141796993Y-95259352D01*
X141796993Y-95259352D02*
X141758898Y-95183161D01*
X141758898Y-95183161D02*
X141758898Y-94992685D01*
X141758898Y-94992685D02*
X141796993Y-94916495D01*
X141796993Y-94916495D02*
X141835088Y-94878400D01*
X141835088Y-94878400D02*
X141911279Y-94840304D01*
X141911279Y-94840304D02*
X142139850Y-94840304D01*
X142139850Y-94840304D02*
X142216041Y-94878400D01*
X142216041Y-94878400D02*
X142254136Y-94916495D01*
X141377945Y-94840304D02*
X141225564Y-94840304D01*
X141225564Y-94840304D02*
X141149374Y-94878400D01*
X141149374Y-94878400D02*
X141111278Y-94916495D01*
X141111278Y-94916495D02*
X141035088Y-95030780D01*
X141035088Y-95030780D02*
X140996993Y-95183161D01*
X140996993Y-95183161D02*
X140996993Y-95487923D01*
X140996993Y-95487923D02*
X141035088Y-95564114D01*
X141035088Y-95564114D02*
X141073183Y-95602209D01*
X141073183Y-95602209D02*
X141149374Y-95640304D01*
X141149374Y-95640304D02*
X141301755Y-95640304D01*
X141301755Y-95640304D02*
X141377945Y-95602209D01*
X141377945Y-95602209D02*
X141416040Y-95564114D01*
X141416040Y-95564114D02*
X141454136Y-95487923D01*
X141454136Y-95487923D02*
X141454136Y-95297447D01*
X141454136Y-95297447D02*
X141416040Y-95221257D01*
X141416040Y-95221257D02*
X141377945Y-95183161D01*
X141377945Y-95183161D02*
X141301755Y-95145066D01*
X141301755Y-95145066D02*
X141149374Y-95145066D01*
X141149374Y-95145066D02*
X141073183Y-95183161D01*
X141073183Y-95183161D02*
X141035088Y-95221257D01*
X141035088Y-95221257D02*
X140996993Y-95297447D01*
X140235088Y-95373638D02*
X140235088Y-94840304D01*
X140425564Y-95678400D02*
X140616041Y-95106971D01*
X140616041Y-95106971D02*
X140120802Y-95106971D01*
X139396993Y-94840304D02*
X139854136Y-94840304D01*
X139625564Y-94840304D02*
X139625564Y-95640304D01*
X139625564Y-95640304D02*
X139701755Y-95526019D01*
X139701755Y-95526019D02*
X139777945Y-95449828D01*
X139777945Y-95449828D02*
X139854136Y-95411733D01*
X140841101Y-97159695D02*
X140383958Y-97159695D01*
X140612530Y-97159695D02*
X140612530Y-96359695D01*
X140612530Y-96359695D02*
X140536339Y-96473980D01*
X140536339Y-96473980D02*
X140460149Y-96550171D01*
X140460149Y-96550171D02*
X140383958Y-96588266D01*
X141603006Y-97159695D02*
X141145863Y-97159695D01*
X141374435Y-97159695D02*
X141374435Y-96359695D01*
X141374435Y-96359695D02*
X141298244Y-96473980D01*
X141298244Y-96473980D02*
X141222054Y-96550171D01*
X141222054Y-96550171D02*
X141145863Y-96588266D01*
D11*
X133861403Y-95371558D02*
X133861403Y-94838224D01*
X134051879Y-95676320D02*
X134242356Y-95104891D01*
X134242356Y-95104891D02*
X133747117Y-95104891D01*
X133404260Y-94838224D02*
X133251879Y-94838224D01*
X133251879Y-94838224D02*
X133175689Y-94876320D01*
X133175689Y-94876320D02*
X133137593Y-94914415D01*
X133137593Y-94914415D02*
X133061403Y-95028700D01*
X133061403Y-95028700D02*
X133023308Y-95181081D01*
X133023308Y-95181081D02*
X133023308Y-95485843D01*
X133023308Y-95485843D02*
X133061403Y-95562034D01*
X133061403Y-95562034D02*
X133099498Y-95600129D01*
X133099498Y-95600129D02*
X133175689Y-95638224D01*
X133175689Y-95638224D02*
X133328070Y-95638224D01*
X133328070Y-95638224D02*
X133404260Y-95600129D01*
X133404260Y-95600129D02*
X133442355Y-95562034D01*
X133442355Y-95562034D02*
X133480451Y-95485843D01*
X133480451Y-95485843D02*
X133480451Y-95295367D01*
X133480451Y-95295367D02*
X133442355Y-95219177D01*
X133442355Y-95219177D02*
X133404260Y-95181081D01*
X133404260Y-95181081D02*
X133328070Y-95142986D01*
X133328070Y-95142986D02*
X133175689Y-95142986D01*
X133175689Y-95142986D02*
X133099498Y-95181081D01*
X133099498Y-95181081D02*
X133061403Y-95219177D01*
X133061403Y-95219177D02*
X133023308Y-95295367D01*
D10*
X133241101Y-97159695D02*
X132783958Y-97159695D01*
X133012530Y-97159695D02*
X133012530Y-96359695D01*
X133012530Y-96359695D02*
X132936339Y-96473980D01*
X132936339Y-96473980D02*
X132860149Y-96550171D01*
X132860149Y-96550171D02*
X132783958Y-96588266D01*
X149983958Y-96435885D02*
X150022054Y-96397790D01*
X150022054Y-96397790D02*
X150098244Y-96359695D01*
X150098244Y-96359695D02*
X150288720Y-96359695D01*
X150288720Y-96359695D02*
X150364911Y-96397790D01*
X150364911Y-96397790D02*
X150403006Y-96435885D01*
X150403006Y-96435885D02*
X150441101Y-96512076D01*
X150441101Y-96512076D02*
X150441101Y-96588266D01*
X150441101Y-96588266D02*
X150403006Y-96702552D01*
X150403006Y-96702552D02*
X149945863Y-97159695D01*
X149945863Y-97159695D02*
X150441101Y-97159695D01*
X150707768Y-96359695D02*
X151203006Y-96359695D01*
X151203006Y-96359695D02*
X150936340Y-96664457D01*
X150936340Y-96664457D02*
X151050625Y-96664457D01*
X151050625Y-96664457D02*
X151126816Y-96702552D01*
X151126816Y-96702552D02*
X151164911Y-96740647D01*
X151164911Y-96740647D02*
X151203006Y-96816838D01*
X151203006Y-96816838D02*
X151203006Y-97007314D01*
X151203006Y-97007314D02*
X151164911Y-97083504D01*
X151164911Y-97083504D02*
X151126816Y-97121600D01*
X151126816Y-97121600D02*
X151050625Y-97159695D01*
X151050625Y-97159695D02*
X150822054Y-97159695D01*
X150822054Y-97159695D02*
X150745863Y-97121600D01*
X150745863Y-97121600D02*
X150707768Y-97083504D01*
X148383958Y-96435885D02*
X148422054Y-96397790D01*
X148422054Y-96397790D02*
X148498244Y-96359695D01*
X148498244Y-96359695D02*
X148688720Y-96359695D01*
X148688720Y-96359695D02*
X148764911Y-96397790D01*
X148764911Y-96397790D02*
X148803006Y-96435885D01*
X148803006Y-96435885D02*
X148841101Y-96512076D01*
X148841101Y-96512076D02*
X148841101Y-96588266D01*
X148841101Y-96588266D02*
X148803006Y-96702552D01*
X148803006Y-96702552D02*
X148345863Y-97159695D01*
X148345863Y-97159695D02*
X148841101Y-97159695D01*
X149603006Y-97159695D02*
X149145863Y-97159695D01*
X149374435Y-97159695D02*
X149374435Y-96359695D01*
X149374435Y-96359695D02*
X149298244Y-96473980D01*
X149298244Y-96473980D02*
X149222054Y-96550171D01*
X149222054Y-96550171D02*
X149145863Y-96588266D01*
X147241101Y-97159695D02*
X146783958Y-97159695D01*
X147012530Y-97159695D02*
X147012530Y-96359695D01*
X147012530Y-96359695D02*
X146936339Y-96473980D01*
X146936339Y-96473980D02*
X146860149Y-96550171D01*
X146860149Y-96550171D02*
X146783958Y-96588266D01*
X147622054Y-97159695D02*
X147774435Y-97159695D01*
X147774435Y-97159695D02*
X147850625Y-97121600D01*
X147850625Y-97121600D02*
X147888721Y-97083504D01*
X147888721Y-97083504D02*
X147964911Y-96969219D01*
X147964911Y-96969219D02*
X148003006Y-96816838D01*
X148003006Y-96816838D02*
X148003006Y-96512076D01*
X148003006Y-96512076D02*
X147964911Y-96435885D01*
X147964911Y-96435885D02*
X147926816Y-96397790D01*
X147926816Y-96397790D02*
X147850625Y-96359695D01*
X147850625Y-96359695D02*
X147698244Y-96359695D01*
X147698244Y-96359695D02*
X147622054Y-96397790D01*
X147622054Y-96397790D02*
X147583959Y-96435885D01*
X147583959Y-96435885D02*
X147545863Y-96512076D01*
X147545863Y-96512076D02*
X147545863Y-96702552D01*
X147545863Y-96702552D02*
X147583959Y-96778742D01*
X147583959Y-96778742D02*
X147622054Y-96816838D01*
X147622054Y-96816838D02*
X147698244Y-96854933D01*
X147698244Y-96854933D02*
X147850625Y-96854933D01*
X147850625Y-96854933D02*
X147926816Y-96816838D01*
X147926816Y-96816838D02*
X147964911Y-96778742D01*
X147964911Y-96778742D02*
X148003006Y-96702552D01*
X145641101Y-97159695D02*
X145183958Y-97159695D01*
X145412530Y-97159695D02*
X145412530Y-96359695D01*
X145412530Y-96359695D02*
X145336339Y-96473980D01*
X145336339Y-96473980D02*
X145260149Y-96550171D01*
X145260149Y-96550171D02*
X145183958Y-96588266D01*
X145907768Y-96359695D02*
X146441102Y-96359695D01*
X146441102Y-96359695D02*
X146098244Y-97159695D01*
X144041101Y-97159695D02*
X143583958Y-97159695D01*
X143812530Y-97159695D02*
X143812530Y-96359695D01*
X143812530Y-96359695D02*
X143736339Y-96473980D01*
X143736339Y-96473980D02*
X143660149Y-96550171D01*
X143660149Y-96550171D02*
X143583958Y-96588266D01*
X144764911Y-96359695D02*
X144383959Y-96359695D01*
X144383959Y-96359695D02*
X144345863Y-96740647D01*
X144345863Y-96740647D02*
X144383959Y-96702552D01*
X144383959Y-96702552D02*
X144460149Y-96664457D01*
X144460149Y-96664457D02*
X144650625Y-96664457D01*
X144650625Y-96664457D02*
X144726816Y-96702552D01*
X144726816Y-96702552D02*
X144764911Y-96740647D01*
X144764911Y-96740647D02*
X144803006Y-96816838D01*
X144803006Y-96816838D02*
X144803006Y-97007314D01*
X144803006Y-97007314D02*
X144764911Y-97083504D01*
X144764911Y-97083504D02*
X144726816Y-97121600D01*
X144726816Y-97121600D02*
X144650625Y-97159695D01*
X144650625Y-97159695D02*
X144460149Y-97159695D01*
X144460149Y-97159695D02*
X144383959Y-97121600D01*
X144383959Y-97121600D02*
X144345863Y-97083504D01*
X142441101Y-97159695D02*
X141983958Y-97159695D01*
X142212530Y-97159695D02*
X142212530Y-96359695D01*
X142212530Y-96359695D02*
X142136339Y-96473980D01*
X142136339Y-96473980D02*
X142060149Y-96550171D01*
X142060149Y-96550171D02*
X141983958Y-96588266D01*
X142707768Y-96359695D02*
X143203006Y-96359695D01*
X143203006Y-96359695D02*
X142936340Y-96664457D01*
X142936340Y-96664457D02*
X143050625Y-96664457D01*
X143050625Y-96664457D02*
X143126816Y-96702552D01*
X143126816Y-96702552D02*
X143164911Y-96740647D01*
X143164911Y-96740647D02*
X143203006Y-96816838D01*
X143203006Y-96816838D02*
X143203006Y-97007314D01*
X143203006Y-97007314D02*
X143164911Y-97083504D01*
X143164911Y-97083504D02*
X143126816Y-97121600D01*
X143126816Y-97121600D02*
X143050625Y-97159695D01*
X143050625Y-97159695D02*
X142822054Y-97159695D01*
X142822054Y-97159695D02*
X142745863Y-97121600D01*
X142745863Y-97121600D02*
X142707768Y-97083504D01*
X139260149Y-97159695D02*
X139412530Y-97159695D01*
X139412530Y-97159695D02*
X139488720Y-97121600D01*
X139488720Y-97121600D02*
X139526816Y-97083504D01*
X139526816Y-97083504D02*
X139603006Y-96969219D01*
X139603006Y-96969219D02*
X139641101Y-96816838D01*
X139641101Y-96816838D02*
X139641101Y-96512076D01*
X139641101Y-96512076D02*
X139603006Y-96435885D01*
X139603006Y-96435885D02*
X139564911Y-96397790D01*
X139564911Y-96397790D02*
X139488720Y-96359695D01*
X139488720Y-96359695D02*
X139336339Y-96359695D01*
X139336339Y-96359695D02*
X139260149Y-96397790D01*
X139260149Y-96397790D02*
X139222054Y-96435885D01*
X139222054Y-96435885D02*
X139183958Y-96512076D01*
X139183958Y-96512076D02*
X139183958Y-96702552D01*
X139183958Y-96702552D02*
X139222054Y-96778742D01*
X139222054Y-96778742D02*
X139260149Y-96816838D01*
X139260149Y-96816838D02*
X139336339Y-96854933D01*
X139336339Y-96854933D02*
X139488720Y-96854933D01*
X139488720Y-96854933D02*
X139564911Y-96816838D01*
X139564911Y-96816838D02*
X139603006Y-96778742D01*
X139603006Y-96778742D02*
X139641101Y-96702552D01*
X137545863Y-96359695D02*
X138079197Y-96359695D01*
X138079197Y-96359695D02*
X137736339Y-97159695D01*
X136403006Y-96359695D02*
X136022054Y-96359695D01*
X136022054Y-96359695D02*
X135983958Y-96740647D01*
X135983958Y-96740647D02*
X136022054Y-96702552D01*
X136022054Y-96702552D02*
X136098244Y-96664457D01*
X136098244Y-96664457D02*
X136288720Y-96664457D01*
X136288720Y-96664457D02*
X136364911Y-96702552D01*
X136364911Y-96702552D02*
X136403006Y-96740647D01*
X136403006Y-96740647D02*
X136441101Y-96816838D01*
X136441101Y-96816838D02*
X136441101Y-97007314D01*
X136441101Y-97007314D02*
X136403006Y-97083504D01*
X136403006Y-97083504D02*
X136364911Y-97121600D01*
X136364911Y-97121600D02*
X136288720Y-97159695D01*
X136288720Y-97159695D02*
X136098244Y-97159695D01*
X136098244Y-97159695D02*
X136022054Y-97121600D01*
X136022054Y-97121600D02*
X135983958Y-97083504D01*
X134345863Y-96359695D02*
X134841101Y-96359695D01*
X134841101Y-96359695D02*
X134574435Y-96664457D01*
X134574435Y-96664457D02*
X134688720Y-96664457D01*
X134688720Y-96664457D02*
X134764911Y-96702552D01*
X134764911Y-96702552D02*
X134803006Y-96740647D01*
X134803006Y-96740647D02*
X134841101Y-96816838D01*
X134841101Y-96816838D02*
X134841101Y-97007314D01*
X134841101Y-97007314D02*
X134803006Y-97083504D01*
X134803006Y-97083504D02*
X134764911Y-97121600D01*
X134764911Y-97121600D02*
X134688720Y-97159695D01*
X134688720Y-97159695D02*
X134460149Y-97159695D01*
X134460149Y-97159695D02*
X134383958Y-97121600D01*
X134383958Y-97121600D02*
X134345863Y-97083504D01*
%TO.C,REF\u002A\u002A*%
D12*
X152400000Y-101250000D02*
X133400000Y-101250000D01*
X132600000Y-90750000D02*
X152400000Y-90750000D01*
X132600000Y-100450000D02*
X132600000Y-90750000D01*
X133400000Y-101250000D02*
X132600000Y-100450000D01*
%TD*%
M02*
